<svg xmlns="http://www.w3.org/2000/svg" xmlns:xlink="http://www.w3.org/1999/xlink" viewBox="0 0 902 691.099"><defs><style>.a,.c,.d{fill:#e95a2e;}.a,.e,.f,.t{opacity:0.1;}.b{fill:none;stroke:#535461;stroke-miterlimit:10;stroke-width:2px;}.d{opacity:0.25;}.e{fill:#6c63ff;}.g{fill:#ffd037;}.h{fill:#a8a8a8;}.i,.m{opacity:0.2;}.j{fill:url(#a);}.k{fill:#fff;}.l,.m{fill:#5a5773;}.n{fill:url(#b);}.o{fill:#efb7b9;}.p{fill:#ff6484;}.q{fill:#444053;}.r{fill:#a1616a;}.s{fill:#925978;}</style><linearGradient id="a" x1="0.5" y1="1" x2="0.5" gradientUnits="objectBoundingBox"><stop offset="0" stop-color="gray" stop-opacity="0.251"/><stop offset="0.54" stop-color="gray" stop-opacity="0.122"/><stop offset="1" stop-color="gray" stop-opacity="0.102"/></linearGradient><linearGradient id="b" x1="0.5" x2="0.5" xlink:href="#a"/></defs><g transform="translate(0.01 0.019)"><path class="a" d="M922.588,589.338c-.788.711-1.513,1.4-2.285,2.076a76.206,76.206,0,0,1-8.926,6.734c-16.213,10.573-36.2,15.737-55.667,19.246-43.661,7.874-88.235,9.4-132.621,10.9-119.929,4.073-240.15,8.137-359.788-1.247-47.269-3.7-95.578-9.9-138.411-28.9q-9.21-4.073-18.057-8.985c-11.935-6.636-23.4-14.714-32.931-24.362-8.957-9.043-16.221-19.431-20.562-31.241-9.052-24.6-4.262-52.222,6.074-76.33A250.241,250.241,0,0,1,173.9,429.195c7.981-13.574,16.78-26.759,24.808-40.323,28.566-48.217,47.206-109.218,20.838-158.672-7.579-14.208-18.529-26.681-24.706-41.512-7.878-18.973-7.272-40.041-4.766-60.5q.488-3.9,1.032-7.718c4.278-30.345,12.329-63.038,37.153-81.982,25.785-19.684,62.4-18.69,94.4-11.694,49.766,10.992,95.672,33.872,142.067,54.531s94.932,39.534,145.919,41.561c45.023,1.793,97.539-11.625,127.421-46.5,29.023-33.872,83.579-36.455,122.9-15.991,26.99,14.042,47.127,39.339,55.62,67.793a105.812,105.812,0,0,1,3.695,17.657,100.483,100.483,0,0,1,.662,16.654c-.118,2.748-.347,5.467-.662,8.156-6.57,56.149-53.863,100.438-82.61,150.594-14.047,24.5-23.965,53.927-14.307,80.344,14.732,40.255,65.964,54.57,96.9,84.525a84.355,84.355,0,0,1,15.2,19.294C950.485,532.069,944.947,568.075,922.588,589.338Z" transform="translate(-41.9 -21.46)"/><g transform="translate(-0.01 -0.019)"><path class="b" d="M299.89,346.32s-46-81.52-115.32-105c-29.09-9.86-54.48-28.4-71.84-53.74a238,238,0,0,1-21.2-38.12" transform="translate(-41.89 -21.441)"/><path class="c" d="M47.94,134.37C55.84,142,92.62,150,92.62,150s-9-36.52-16.92-44.19a19.929,19.929,0,1,0-27.761,28.6Z" transform="translate(-41.89 -21.441)"/><path class="c" d="M68.75,200.46c10.79,2.14,46-11.19,46-11.19S87.3,163.51,76.5,161.37a19.928,19.928,0,1,0-7.751,39.094Z" transform="translate(-41.89 -21.441)"/><path class="c" d="M144.5,272c10.4-3.6,34-32.87,34-32.87s-36.68-8.39-47.07-4.79a19.93,19.93,0,1,0,13,37.66Z" transform="translate(-41.89 -21.441)"/><path class="c" d="M214,313.19c10.86-1.8,39.1-26.65,39.1-26.65s-34.73-14.47-45.59-12.68A19.931,19.931,0,1,0,214,313.19Z" transform="translate(-41.89 -21.441)"/><path class="c" d="M145.39,160.73c0,11-19.9,42.93-19.9,42.93s-19.94-31.91-19.95-42.91a19.93,19.93,0,1,1,39.85,0Z" transform="translate(-41.89 -21.441)"/><path class="c" d="M226.07,210c-3.29,10.5-31.84,35-31.84,35s-9.48-36.45-6.23-47a19.93,19.93,0,0,1,38,11.91Z" transform="translate(-41.89 -21.441)"/><path class="c" d="M297.91,268.55c-1.46,10.91-25.46,39.88-25.46,39.88s-15.5-34.28-14-45.19a19.929,19.929,0,1,1,39.5,5.31Z" transform="translate(-41.89 -21.441)"/><path class="d" d="M47.94,134.37C55.84,142,92.62,150,92.62,150s-9-36.52-16.92-44.19a19.929,19.929,0,1,0-27.761,28.6Z" transform="translate(-41.89 -21.441)"/><path class="d" d="M68.75,200.46c10.79,2.14,46-11.19,46-11.19S87.3,163.51,76.5,161.37a19.928,19.928,0,1,0-7.751,39.094Z" transform="translate(-41.89 -21.441)"/><path class="d" d="M144.5,272c10.4-3.6,34-32.87,34-32.87s-36.68-8.39-47.07-4.79a19.93,19.93,0,1,0,13,37.66Z" transform="translate(-41.89 -21.441)"/><path class="d" d="M214,313.19c10.86-1.8,39.1-26.65,39.1-26.65s-34.73-14.47-45.59-12.68A19.931,19.931,0,1,0,214,313.19Z" transform="translate(-41.89 -21.441)"/><path class="d" d="M145.39,160.73c0,11-19.9,42.93-19.9,42.93s-19.94-31.91-19.95-42.91a19.93,19.93,0,1,1,39.85,0Z" transform="translate(-41.89 -21.441)"/><path class="d" d="M226.07,210c-3.29,10.5-31.84,35-31.84,35s-9.48-36.45-6.23-47a19.93,19.93,0,0,1,38,11.91Z" transform="translate(-41.89 -21.441)"/><path class="d" d="M297.91,268.55c-1.46,10.91-25.46,39.88-25.46,39.88s-15.5-34.28-14-45.19a19.929,19.929,0,1,1,39.5,5.31Z" transform="translate(-41.89 -21.441)"/><path class="b" d="M297.24,344.7s-9-93.18-62.88-142.74c-22.59-20.8-38.29-48-43.9-78.24a238.15,238.15,0,0,1-3.92-43.45" transform="translate(-41.89 -21.441)"/><path class="c" d="M152.79,48.84c4.12,10.21,34.53,32.36,34.53,32.36s6.55-37.05,2.44-47.26a19.944,19.944,0,1,0-37,14.9Z" transform="translate(-41.89 -21.441)"/><path class="c" d="M145,117.69c9,6.33,46.57,8.4,46.57,8.4S177,91.43,168,85.1a19.944,19.944,0,0,0-23,32.59Z" transform="translate(-41.89 -21.441)"/><path class="c" d="M185.31,213.77c11,.93,44.44-16.26,44.44-16.26s-30.13-22.53-41.1-23.45a19.93,19.93,0,1,0-3.34,39.71Z" transform="translate(-41.89 -21.441)"/><path class="c" d="M232.15,279.61c10.66,2.76,46.55-8.52,46.55-8.52s-25.89-27.3-36.54-30.06a19.929,19.929,0,1,0-10,38.582Z" transform="translate(-41.89 -21.441)"/><path class="c" d="M231.2,112.43c-4.45,10.06-35.59,31.17-35.59,31.17s-5.3-37.24-.85-47.31A19.929,19.929,0,1,1,231.2,112.431Z" transform="translate(-41.89 -21.441)"/><path class="c" d="M285,190.11c-7.26,8.27-43.29,19.1-43.29,19.1s6.08-37.12,13.35-45.39A19.922,19.922,0,0,1,285,190.11Z" transform="translate(-41.89 -21.441)"/><path class="c" d="M327,272.8c-5.76,9.38-39.44,26.14-39.44,26.14s-.28-37.62,5.48-47a19.945,19.945,0,1,1,34,20.86Z" transform="translate(-41.89 -21.441)"/></g><ellipse class="a" cx="111.53" cy="14.52" rx="111.53" ry="14.52" transform="translate(225.485 656.66)"/><g transform="translate(110.105 605.48)"><ellipse class="e" cx="33.88" cy="5.8" rx="33.88" ry="5.8" transform="translate(2.843 58.78)"/><path class="c" d="M232.14,792.94s5.49,7.19-2.54,18-14.65,20-12,26.77c0,0,12.11-20.15,22-20.43S243,805.06,232.14,792.94Z" transform="translate(-188.057 -792.94)"/><path class="f" d="M232.14,792.94a8.83,8.83,0,0,1,1.12,2.26c9.62,11.3,14.75,21.85,5.5,22.11-8.61.25-18.95,15.65-21.42,19.54a9.241,9.241,0,0,0,.29.89s12.11-20.15,22-20.43S243,805.06,232.14,792.94Z" transform="translate(-188.057 -792.94)"/><path class="g" d="M242.35,802.1c0,2.53-.28,4.58-.63,4.58s-.64-2-.64-4.58.36-1.34.71-1.34S242.35,799.57,242.35,802.1Z" transform="translate(-188.057 -792.94)"/><path class="g" d="M245.86,805.12c-2.22,1.21-4.16,1.94-4.33,1.63s1.5-1.54,3.72-2.75,1.34-.33,1.51,0S248.08,803.91,245.86,805.12Z" transform="translate(-188.057 -792.94)"/><path class="c" d="M203.12,792.94s-5.49,7.19,2.54,18,14.65,20,12,26.77c0,0-12.11-20.15-22-20.43S192.28,805.06,203.12,792.94Z" transform="translate(-188.057 -792.94)"/><path class="f" d="M203.12,792.94A8.829,8.829,0,0,0,202,795.2c-9.62,11.3-14.75,21.85-5.5,22.11,8.62.25,18.95,15.65,21.42,19.54a7.105,7.105,0,0,1-.29.89s-12.11-20.15-22-20.43S192.28,805.06,203.12,792.94Z" transform="translate(-188.057 -792.94)"/><path class="g" d="M192.91,802.1c0,2.53.28,4.58.63,4.58s.64-2,.64-4.58-.36-1.34-.71-1.34S192.91,799.57,192.91,802.1Z" transform="translate(-188.057 -792.94)"/><path class="g" d="M189.41,805.12c2.22,1.21,4.15,1.94,4.32,1.63s-1.5-1.54-3.72-2.75-1.34-.33-1.51,0S187.19,803.91,189.41,805.12Z" transform="translate(-188.057 -792.94)"/><path class="h" d="M194.66,836.8s15.36-.48,20-3.77,23.62-7.24,24.77-1.95,23.08,26.29,5.74,26.43-40.29-2.7-44.91-5.51S194.66,836.8,194.66,836.8Z" transform="translate(-188.057 -792.94)"/><path class="i" d="M245.47,855.67c-17.34.14-40.29-2.7-44.91-5.51-3.52-2.15-4.92-9.84-5.39-13.38h-.51s1,12.38,5.59,15.2,27.57,5.65,44.91,5.51c5,0,6.74-1.82,6.64-4.46C251.11,854.65,249.2,855.64,245.47,855.67Z" transform="translate(-188.057 -792.94)"/><path class="c" d="M707.6,836.21s-42.28-2.55-37.29,27.08c0,0-1,5.23,3.75,7.61,0,0,.08-2.19,4.34-1.45a19.361,19.361,0,0,0,4.59.22,9.5,9.5,0,0,0,5.62-2.32h0s11.88-4.9,16.5-24.33c0,0,3.42-4.24,3.29-5.33l-7.14,3s2.44,5.15.52,9.43c0,0-.23-9.24-1.6-9-.28,0-3.71,1.78-3.71,1.78s4.2,9,1,15.48c0,0,1.2-11-2.34-14.83l-5,2.93s4.9,9.26,1.58,16.82c0,0,.85-11.59-2.63-16.11l-4.55,3.55s4.6,9.13,1.79,15.4c0,0-.36-13.49-2.78-14.51,0,0-4,3.51-4.59,5,0,0,3.15,6.62,1.2,10.12,0,0-1.2-9-2.19-9,0,0-4,6-4.38,10,0,0,.18-6.07,3.42-10.61a11.939,11.939,0,0,0-6.07,3.15s.62-4.21,7-4.58c0,0,3.28-4.52,4.16-4.79,0,0-6.4-.54-10.28,1.18,0,0,3.41-4,11.45-2.17l4.49-3.66s-8.42-1.16-12,.12c0,0,4.12-3.52,13.21-1l4.9-2.92s-7.19-1.55-11.47-1c0,0,4.52-2.44,12.9.2l3.5-1.57s-5.27-1-6.81-1.19-1.62-.59-1.62-.59a18.26,18.26,0,0,1,9.89,1.1S707.73,836.68,707.6,836.21Z" transform="translate(-188.057 -792.94)"/><ellipse class="e" cx="29.92" cy="5.06" rx="29.92" ry="5.06" transform="translate(460.503 75.48)"/><path class="c" d="M633.53,837.79s-23.84-1.44-21,15.27a4.08,4.08,0,0,0,2.12,4.29s0-1.24,2.45-.82a11.669,11.669,0,0,0,2.58.13,5.47,5.47,0,0,0,3.17-1.31h0s6.7-2.77,9.31-13.72c0,0,1.92-2.39,1.85-3l-4,1.71s1.37,2.91.29,5.32c0,0-.13-5.21-.9-5.09-.16,0-2.09,1-2.09,1s2.36,5,.58,8.73c0,0,.67-6.23-1.32-8.37l-2.83,1.66s2.76,5.22.89,9.48c0,0,.48-6.54-1.49-9.08l-2.56,2s2.59,5.15,1,8.68c0,0-.21-7.61-1.57-8.18a15.643,15.643,0,0,0-2.59,2.79s1.78,3.74.68,5.71c0,0-.68-5.07-1.23-5.09,0,0-2.24,3.36-2.47,5.66a12.15,12.15,0,0,1,1.92-6,6.719,6.719,0,0,0-3.42,1.77s.35-2.38,4-2.58c0,0,1.84-2.55,2.34-2.7,0,0-3.61-.31-5.8.66,0,0,1.93-2.24,6.46-1.22l2.53-2.07s-4.75-.65-6.76.07c0,0,2.32-2,7.45-.54l2.75-1.64a24.708,24.708,0,0,0-6.46-.56s2.55-1.37,7.27.11l2-.88s-3-.59-3.83-.68-.92-.33-.92-.33a10.32,10.32,0,0,1,5.58.62S633.6,838.06,633.53,837.79Z" transform="translate(-188.057 -792.94)"/><ellipse class="e" cx="16.87" cy="2.85" rx="16.87" ry="2.85" transform="translate(412.183 63.02)"/><path class="c" d="M678.9,802.38s-28.77-1.74-25.38,18.43a4.92,4.92,0,0,0,2.56,5.18s0-1.49,2.95-1a14.191,14.191,0,0,0,3.12.15,6.59,6.59,0,0,0,3.83-1.58h0s8.09-3.34,11.23-16.57c0,0,2.33-2.88,2.24-3.62l-4.86,2.07s1.66,3.51.36,6.42c0,0-.16-6.29-1.1-6.14-.18,0-2.52,1.21-2.52,1.21s2.86,6.11.7,10.54c0,0,.82-7.52-1.59-10.1l-3.42,2s3.34,6.3,1.08,11.45c0,0,.58-7.89-1.8-11l-3.1,2.41s3.14,6.21,1.23,10.48c0,0-.25-9.18-1.9-9.88,0,0-2.71,2.39-3.12,3.37,0,0,2.15,4.51.81,6.89,0,0-.81-6.11-1.48-6.14,0,0-2.7,4-3,6.83a14.711,14.711,0,0,1,2.32-7.22,8.129,8.129,0,0,0-4.13,2.14s.42-2.87,4.8-3.12c0,0,2.23-3.07,2.83-3.26,0,0-4.36-.36-7,.81,0,0,2.32-2.71,7.8-1.48l3.06-2.49s-5.74-.79-8.17.08c0,0,2.8-2.39,9-.65l3.33-2a32.806,32.806,0,0,0-7.8-.67s3.07-1.66,8.78.13l2.38-1.06s-3.59-.71-4.64-.82-1.1-.4-1.1-.4a12.43,12.43,0,0,1,6.73.75S679,802.7,678.9,802.38Z" transform="translate(-188.057 -792.94)"/><ellipse class="e" cx="20.37" cy="3.44" rx="20.37" ry="3.44" transform="translate(450.663 31.37)"/></g><g transform="translate(200.75 61.54)"><path class="j" d="M851.791,708.64V117H178.65V674.7a147.49,147.49,0,0,0,29.718,31.062,184.5,184.5,0,0,0,16.274,11.479H843.76Z" transform="translate(-178.65 -117)"/><path class="k" d="M849.951,708.823V131H180.73V675.721a146.856,146.856,0,0,0,29.526,30.391q7.925,6.078,16.19,11.208h615.5Z" transform="translate(-178.65 -117)"/><rect class="l" width="669.211" height="25.14" transform="translate(2.09 1.39)"/></g><g transform="translate(193.069 134.631)"><rect class="c" width="156.5" height="98.34" transform="translate(216.69)"/><rect class="m" width="156.5" height="98.34"/><rect class="m" width="156.5" height="98.34" transform="translate(433.38)"/><rect class="m" width="156.5" height="98.34" transform="translate(0 140.59)"/><rect class="m" width="156.5" height="98.34" transform="translate(216.69 140.59)"/><rect class="m" width="156.5" height="98.34" transform="translate(433.38 140.59)"/><rect class="m" width="156.5" height="98.34" transform="translate(0 281.17)"/><rect class="m" width="156.5" height="98.34" transform="translate(216.69 281.17)"/><rect class="m" width="156.5" height="98.34" transform="translate(433.38 281.17)"/></g><g transform="translate(265.899 51.878)"><path class="n" d="M551.37,439.639S523.26,389.547,528,381.4s8.23-19.947,8.23-19.947,10.38-6.922,10.38-9.749,8.22-9.369,12.55-12.216,2.16-16.291,0-17.919-5.59-7.331-5.59-7.331,3-8.141,0-10.588.44-4.875,0-7.332,0-11.4,0-11.4c-3.51-4.758-7.4-6.981-11.06-7.8l-.32-1.287-1.85-7.595s9-16.818-5.6-25.621a24.627,24.627,0,0,0-3.23-1.657,10.656,10.656,0,0,0-.08-1.1,67.311,67.311,0,0,0-2.12-12.879c-.76-2.359-1.75-3.948-3-3.588a2.013,2.013,0,0,0-.82.458,8.954,8.954,0,0,0-1.55,1.784h0a.4.4,0,0,1-.07.107,30.085,30.085,0,0,0-3.44,9.311,52.53,52.53,0,0,0-1,5.85,31.773,31.773,0,0,0-1.67,3.617c-1.77,4.475-3.84,12.226-.07,17.958,3.2,4.875,7.51,11.573,10.64,16.447l.1.156.19.3-.33.2v.751l.29,4.1L531,319.907a15.813,15.813,0,0,0-2.22-.458,20.686,20.686,0,0,0-3.23-.2c-2.11-8.082-7.9-15.6-9-24.042a21.74,21.74,0,0,1-.17-2.545c.09-5.313,1.45-10.646,1.34-15.95a28.591,28.591,0,0,0-.1-2.925h0a7.624,7.624,0,0,0-.08-.809,24.017,24.017,0,0,0-13.37-18.163c-2.51-1.219-5.23-2.028-7.67-3.363-5.64-3.081-9.25-8.638-14.37-12.45-3.81-2.837-9.5-4.358-13.75-2.925a64.917,64.917,0,0,0-6.69,1.345h0a61.216,61.216,0,0,0-15.31,6.2c-.65.38-1.3.77-1.92,1.219a8.31,8.31,0,0,0-3.09,3.52,9.007,9.007,0,0,0-.48,3.793c0,.926,0,1.872.06,2.8-.28,15.6-17.52,27.669-18.94,42.9,0,.361-.06.721-.08,1.082v1.667h0v1.219c.25,6.678,3.81,12.9,4.46,19.547.06.595.09,1.18.1,1.774a28.832,28.832,0,0,1-1.77,8.95,27.265,27.265,0,0,0-6.21,2.457c-5.24,3.286-14.7,8.96-18.15,19.811a28.343,28.343,0,0,0-1.31,8.7,177.172,177.172,0,0,1-2.92,31.052,56.819,56.819,0,0,1-1.84,7.634,1.751,1.751,0,0,0-.06.751l-2.08,26.323-.37,4.631-.52,6.591s.15.4.37,1.072a30.38,30.38,0,0,1,.82,3.042,15.96,15.96,0,0,1,.27,6.825,4.672,4.672,0,0,1-1.46,2.506,1.062,1.062,0,0,0-.17.185c-.59.809-1.12,3.217-1.58,6.708-.18,1.365-.35,2.925-.52,4.543-1,10.383-1.62,25.924-2,38.773-.36,12.674-.49,22.687-.49,22.687a26.834,26.834,0,0,0,5.37,2.593c-.14.341-.29.692-.43,1.063a50.15,50.15,0,0,0-3.26,13.4c-.84,9.584,1.91,20.23,15.62,25.709a22.447,22.447,0,0,0,2.69.9c3,.78,5.21.566,6.84-.409,0,.575.07,1.131.1,1.687.14,2.379.26,4.553.32,6.376.43,11.407,3.33,31.354,3.33,31.354s1,8.15.13,10.588,0,12.216,0,12.216,3,4.875,0,7.332-3.89,14.624-3,16.291a.537.537,0,0,1,.05.185c.66,4.046-3.07,64.161-3.07,64.161s-3.53,9.2-6.34,18.758c-2.74,9.3-4.8,18.933-2.26,20.737,1.26.9,4.19,1.57,7.91,2.086,0,.4-.06.8-.1,1.209-.36,4.3-.93,8.93-1.75,10.1-1.19,1.657-2.44,14.507-3.05,21.449l-.06.77a70.632,70.632,0,0,0-3.22,9.106s-9.57,23.4-6.33,29.472a5.009,5.009,0,0,0,1.19,1.433h0a2.688,2.688,0,0,0,.31.273c4.61,3.6,16.16,4.348,20.35,4.514l-.16,5.791v.214h5.45v-.146c0-.731.12-4.085.3-8.57,0-.8.06-1.638.1-2.5,0-.673.07-1.355.1-2.057A35.265,35.265,0,0,0,426,819.436a55.769,55.769,0,0,1,2.1-15.092,41.256,41.256,0,0,1,2.77-7.361s1.7-8.774-.67-14.985a10.757,10.757,0,0,0-2-3.373c0-.2,0-.41,0-.624v-1.326a54.887,54.887,0,0,1,1.28-12.5,1.349,1.349,0,0,1,0-.195c.08-.341.17-.663.26-.975l.06-.214,1.77.058c5.43.146,9.42.146,9.42.146s4.33-21.585,3.9-30.945v-1.267c-.15-9.3,2.62-21.946,2.62-21.946l3.49-33s-1.73-5.713,0-9.749c1.07-2.515,3.28-7.185,4.82-10.4.72-1.491,1.29-2.661,1.53-3.168l.14-.273a6.544,6.544,0,0,1-1.54-.751h0c-1.41-.917-2.67-2.71,1.55-5.352,6.49-4.075,4.33-14.253,4.33-14.253s-1.91-3.666.34-6.922,0-15.472,0-15.472a50.481,50.481,0,0,0,4.44-10.188c1.61-4.875,5.68-28.712,7.6-40.206.63-3.773,1-6.21,1-6.21l.06.595.06.643h0l.54,5.43.07.721,1,10.266s2,26.986.75,37.564v.195a12.232,12.232,0,0,1-.73,3.208c-2.3,5.07-1.88,25.212-1.76,29.667v.9c0,.244-1.63,3.978-1.22,6.883h0a4.351,4.351,0,0,0,.79,2.047,5.083,5.083,0,0,1,.77,3.169v.1a11.233,11.233,0,0,1-.12,1.4,26.24,26.24,0,0,1-1.52,5.518s-2.32,5.947-1.44,9.057h0a2.838,2.838,0,0,0,.57,1.1,2.555,2.555,0,0,1,.33,1.17.408.408,0,0,0,0,.107c.81,6.561-1.28,35.527-2.52,51.379-.5,6.259-.86,10.471-.86,10.471l-3.43,34.61.34.234c.39.273,1.12.741,2.1,1.307v.078l-.15,1.043c-.49,3.334-1.15,7.215-1.87,10.178-.06.224-.11.439-.17.643a9.712,9.712,0,0,0-3.67,1.433c-7.28,12.606-4.06,22.6,0,25.5,1.15.819,1.93,3.11,2.45,5.957l1,12.567v1.443a3.659,3.659,0,0,0,.19,1.151l.31,3.812.42,5.3h3.32v-6.425H471c5.24.176,13.69.39,17.37.107h.1a6.635,6.635,0,0,0,1-.107,2.567,2.567,0,0,0,.58-.156c1.95-.917,6.81-14.351,2.43-17.4s-5.35-11.7-5.35-11.7c-.38-1.131-.76-2.2-1.15-3.227v-.663c-.12-4.182-.07-8.716.52-11.173.66-2.7,1-8.375,1.14-13.347v-1.238a17.364,17.364,0,0,0,2.23-.712l.16-.068a15.805,15.805,0,0,0,3.73-2.155L506,718.6l1.29-6.152,7.35-34.991s-2.59-12.216,0-14.244c.95-.741,1.21-3.9,1.15-7.556-.1-6.4-1.15-14.439-1.15-14.439s3.46-5.294,5.2-8.55,0-11.807,0-11.807l3.41-19.577s3.9-23.213,13.41-42.761c7-14.38,2.54-53.212-2-73.881-.12-.536-.24-1.063-.36-1.57v-.078c2.14-1.033,4.76-2.281,7.56-3.588l1.06-.487c3.55-1.628,7.31-3.305,10.68-4.7l.22-.088a75.807,75.807,0,0,1,7.43-2.71,12.749,12.749,0,0,1,2.28-.458C569.54,470.584,551.37,439.639,551.37,439.639ZM416.06,505.886h1.8c-.21.38-.41.77-.61,1.16-.12.234-.24.458-.35.692-.66,1.336-1.27,2.7-1.77,4.036.2-1.443.45-3.013.73-4.689C415.93,506.715,416,506.276,416.06,505.886ZM411.2,531.3a.7.7,0,0,0,0-.136l-.15-.458c-.11-.312-.21-.624-.31-.975q.93-.273,1.89-.614h.13v.322c-.05.458-.11.916-.17,1.365h0a.952.952,0,0,1,0,.175,9.253,9.253,0,0,1-.13,1.072c-.09.7-.18,1.384-.26,2.038-.19-.614-.38-1.219-.58-1.813a4.557,4.557,0,0,1-.42-.975Z" transform="translate(-386.5 -223.338)"/><path class="o" d="M541,284.92l-10.8,3.82-3.92-6.5c-3-5-7.16-11.84-10.23-16.81-5.42-8.74,1.67-22.06,1.67-22.06S519,230,523.56,225.88s5.83,17.49,5.83,17.49c18.31,8.32,8.5,27.89,8.5,27.89l1.78,7.76Z" transform="translate(-386.5 -223.338)"/><path class="f" d="M541,284.92l-10.8,3.82-3.92-6.5v-.57s6.19-4.25,13.41-2.65Z" transform="translate(-386.5 -223.338)"/><path class="p" d="M523.56,328.72l5.41-4.58-2.71-41.22s14-9.58,24.36,5.41c0,0-.42,9.16,0,11.66s-2.91,5,0,7.49,0,10.83,0,10.83,3.29,5.83,5.37,7.49,4.17,15.41,0,18.32S544,353.7,544,356.61s-10,10-10,10L525.22,355Z" transform="translate(-386.5 -223.338)"/><path class="o" d="M406.56,578.94c-20.18-8.56-15.7-29.47-11.9-40a54.464,54.464,0,0,1,2.67-6.24l11.32-6.87s2.31,5.89,4.78,13.79C419.16,558,425.75,587.09,406.56,578.94Z" transform="translate(-386.5 -231.627)"/><path class="o" d="M434.3,769.73a34,34,0,0,0-3,8.42,60.806,60.806,0,0,0-1.3,14.33c.08,3.33.36,5.51.36,5.51l-22.48,15.46s.13-1.81.35-4.47c.58-7.08,1.79-20.22,2.93-21.92.79-1.18,1.34-5.92,1.69-10.32s.49-8.26.49-8.26S440.39,758.34,434.3,769.73Z" transform="translate(-386.5 -239.338)"/><path class="o" d="M487.39,780.82s0,4.3-.16,9.3-.46,10.9-1.09,13.65c-.58,2.52-.62,7.15-.51,11.42.15,5,.51,9.5.51,9.5s-22.95-21.7-20.61-23.42c.63-.46,1.25-2.31,1.82-4.77.7-3,1.33-7,1.8-10.4.56-4.05.91-7.31.91-7.31Z" transform="translate(-386.5 -239.338)"/><path class="f" d="M434.3,769.73a34,34,0,0,0-3,8.42,183.721,183.721,0,0,1-18.4-1.41c.34-4.3.49-8.26.49-8.26S440.39,758.34,434.3,769.73Z" transform="translate(-386.5 -239.338)"/><path class="f" d="M487.39,780.82s0,4.3-.16,9.3c-7.16,1.83-14.52-1.83-18.08-4,.56-4.05.91-7.31.91-7.31Z" transform="translate(-386.5 -239.338)"/><path class="q" d="M534.38,568.12c-9.16,20-12.91,43.72-12.91,43.72l-3.33,20s1.67,8.74,0,12.07-5,8.75-5,8.75,2.5,20.4,0,22.48,0,14.57,0,14.57l-8.33,42-11.66,54.12c-11.24,9.17-26.2-2.49-26.2-2.49l3.3-35.39s5-62,2.92-64.54S474,673,474,673s2.92-7.5.84-10.41.41-9.16.41-9.16-.83-25.4,1.67-31.23,0-41.89,0-41.89l-1-11.23-.58-6.22-.05-.61s-.38,2.49-1,6.35c-1.84,11.75-5.76,36.1-7.31,41.11a53.53,53.53,0,0,1-4.27,10.41s2.16,12.49,0,15.82-.33,7.08-.33,7.08,2.08,10.41-4.17,14.57,0,6.25,0,6.25-4.58,10-6.24,14.15,0,10,0,10l-3.33,33.72s-2.92,14.15-2.5,23.73-3.75,31.64-3.75,31.64-32.06,0-37-3.75S413.64,733,413.64,733s3.75-64.12,2.91-65.78,0-14.16,2.92-16.65,0-7.5,0-7.5-.83-10,0-12.49-.13-10.83-.13-10.83-2.79-20.4-3.2-32.06-2.5-37.88-2.5-37.88,2.18-16.22,2.51-23.94c.12-2.84,1.39-6.39,3-9.73a86.8,86.8,0,0,1,6.2-10.88S524,476.1,528.14,479c1.1.77,2.7,6,4.28,13.57C536.82,513.72,541.12,553.42,534.38,568.12Z" transform="translate(-386.5 -239.338)"/><circle class="r" cx="28.73" cy="28.73" r="28.73" transform="translate(58.37 32.852)"/><path class="f" d="M532.42,492.59c-3.31,1.7-5.53,2.87-5.53,2.87S480.26,517.53,467,516.28c-10.26-1-36.45-.43-47.86-.15a86.812,86.812,0,0,1,6.2-10.88S524,476.1,528.14,479C529.24,479.79,530.84,485,532.42,492.59Z" transform="translate(-386.5 -230.14)"/><path class="p" d="M453.61,330.8S427,335,420.72,339.12,402,351.2,402,368.27s-2.91,34.56-4.58,39.55,26.23,45.38,26.23,45.38l-10,61.21s40-1.25,53.32,0,59.93-20.82,59.93-20.82,27.48-14.57,33.31-15-11.66-32.06-11.66-32.06-27.07-51.2-22.49-59.53S534,366.6,534,366.6l-5-42.46s-7.49-2.5-13.74,2.08-27.48,2.08-27.48,2.08Z" transform="translate(-386.5 -216.892)"/><path class="f" d="M408.44,404.91,398,407.82,395.11,447s3.75,10.41,0,13.74-4.58,74.53-4.58,74.53,12.08,8.74,26.23,2.08c0,0-2.08-7.91,4.17-36.64s6.24-43.3,6.24-43.3,0-35.81,2.92-41.64,0-20.4,0-20.4-5.83-7.91-5.42-10.82S408.44,404.91,408.44,404.91Z" transform="translate(-386.5 -228.672)"/><path class="f" d="M413.43,539.65a26.59,26.59,0,0,1-18.77-.68,54.459,54.459,0,0,1,2.67-6.24l11.32-6.87S411,531.75,413.43,539.65Z" transform="translate(-386.5 -231.105)"/><path class="p" d="M407.81,404.91l-10.41,2.91L394.49,447s3.75,10.41,0,13.74-4.58,74.53-4.58,74.53S402,544,416.14,537.31c0,0-2.08-7.91,4.16-36.64s6.25-43.3,6.25-43.3,0-35.81,2.91-41.64,0-20.4,0-20.4-5.83-7.91-5.41-10.82S407.81,404.91,407.81,404.91Z" transform="translate(-386.5 -228.671)"/><path class="f" d="M514.4,411.15s-5.41,46.63-21.24,55.38C493.16,466.53,528.55,456.54,514.4,411.15Z" transform="translate(-386.5 -228.492)"/><path class="f" d="M434.88,415.32s19.56,9.57,15,16.23S434.88,415.32,434.88,415.32Z" transform="translate(-386.5 -228.285)"/><path class="f" d="M434.88,434.47s12.49,12.91,10,17.49S434.88,434.47,434.88,434.47Z" transform="translate(-386.5 -228.784)"/><path class="f" d="M535.63,327.47s4.9,8.32,5.37,13.74S535.63,327.47,535.63,327.47Z" transform="translate(-386.5 -209.781)"/><path class="f" d="M535.63,316.23s2.46-2.09,8.74,0S535.63,316.23,535.63,316.23Z" transform="translate(-386.5 -223.338)"/><path class="f" d="M511.59,559.58a57.9,57.9,0,0,1-30.45-3.9l-5.25,13.44-.58-6.22c.86-5.22,2.53-10.81,5.83-12.22C481.14,550.68,492.7,559.89,511.59,559.58Z" transform="translate(-386.5 -231.786)"/><path class="f" d="M426.18,577.07s25.61,5.31,32.79,4.37Z" transform="translate(-386.5 -232.266)"/><path class="f" d="M428.84,583.78s10.93-.47,16.39,1.72Z" transform="translate(-386.5 -232.396)"/><path class="f" d="M430.09,588.31a98,98,0,0,0,15.14,2Z" transform="translate(-386.5 -232.514)"/><path class="f" d="M429.46,645.61c.47-.31,21.86-5.31,24.52-1.72Z" transform="translate(-386.5 -233.896)"/><path class="f" d="M429.46,652.17s18.58-2.19,19.05,0S429.46,652.17,429.46,652.17Z" transform="translate(-386.5 -234.094)"/><path class="f" d="M429.46,658.1s19.83-4.1,22.17-3.1S429.46,658.1,429.46,658.1Z" transform="translate(-386.5 -234.208)"/><path class="f" d="M430.4,798l-22.48,15.46s.13-1.81.35-4.47c5-12.3,11.51-18.79,11.51-18.79,5.07-1.32,8.27-.1,10.26,2.29C430.12,795.81,430.4,798,430.4,798Z" transform="translate(-386.5 -239.338)"/><path class="q" d="M432.59,811.89a55.791,55.791,0,0,0-4.69,23,35.67,35.67,0,0,1-4.76,18.51,18.241,18.241,0,0,1-1.58,2.26s-15.62-.13-21.09-4.66a5.409,5.409,0,0,1-1.47-1.8c-3.13-6.24,6.09-30.13,6.09-30.13,4.84-18.42,14.67-28.26,14.67-28.26C437.27,786.28,432.59,811.89,432.59,811.89Z" transform="translate(-386.5 -239.338)"/><path class="f" d="M423.14,853.35a18.236,18.236,0,0,1-1.58,2.26s-15.62-.13-21.09-4.66c2.69-8.9,11.27-35.83,15.29-31.25C419.54,824,422.17,844.69,423.14,853.35Z" transform="translate(-386.5 -239.338)"/><path class="q" d="M421,821.37l-1.09,40.34h5.24s.85-35.39,3.19-40.34S421,821.37,421,821.37Z" transform="translate(-386.5 -239.338)"/><path class="f" d="M486.14,824.69s-22.95-21.7-20.61-23.42c.63-.46,1.25-2.31,1.82-4.77,4.41-.77,12,1.07,18.28,18.69C485.78,820.19,486.14,824.69,486.14,824.69Z" transform="translate(-386.5 -239.338)"/><path class="q" d="M489.57,848.89a2.33,2.33,0,0,1-.55.16c-2.7.47-12.65.2-18.22,0a3.94,3.94,0,0,1-3.81-3.93c0-1.5,0-3.33-.12-5.28-.26-6.16-1-13.49-3.21-15.14-3.91-3-7-13.18,0-26.07,0,0,13.42-10.25,23.1,20.56,0,0,.94,8.79,5.15,11.91S491.45,848,489.57,848.89Z" transform="translate(-386.5 -239.338)"/><path class="f" d="M489,849.05c-2.7.47-12.65.2-18.22,0a3.94,3.94,0,0,1-3.81-3.93c0-1.5,0-3.33-.12-5.28,1.69-7.46,4.12-15.14,7.25-16.89C474.12,822.94,483.59,821.87,489,849.05Z" transform="translate(-386.5 -239.338)"/><path class="q" d="M423.46,800.58l2.52,33.57h3.2V797.72Z" transform="translate(-344.6 -217.878)"/><path class="f" d="M473.18,239.14a57.42,57.42,0,0,0-25.62,8.23c-2,1.21-4,2.68-4.83,4.85-.72,1.88-.42,4-.39,6,.27,17.22-18.93,30.25-18.33,47.46.24,6.83,3.67,13.19,4.3,20,1.05,11.36-5.67,21.81-12.11,31.22a25.86,25.86,0,0,0,18.25-6.05A138.39,138.39,0,0,1,437,420.6h9.21a7,7,0,0,1,2.69.33,6.76,6.76,0,0,1,2.13,1.59c8.61,8.57,14.38,21.24,11.09,32.94l19.6-7.35c4.69-1.76,9.45-3.55,13.53-6.45s7.5-7.11,8.36-12.05c.53-3,.36-6.58,2.83-8.32a15.4,15.4,0,0,1,3.86-1.43c5.38-1.9,7.76-8.12,8.86-13.72a79,79,0,0,0,1.25-20.87c-.87-11.7-4.33-23.58-1.48-35,1.61-6.41,5.19-12.38,5.48-19,.47-10.91-8.06-20.31-9.33-31.16-.89-7.56,1.84-15.21.95-22.77a24.46,24.46,0,0,0-12.87-18.57c-2.41-1.24-5-2.07-7.38-3.44-5.43-3.15-8.9-8.82-13.83-12.72s-13.14-5.37-16.85-.3Z" transform="translate(-386.5 -223.338)"/><path class="s" d="M473.18,237.89a57.42,57.42,0,0,0-25.62,8.23c-2,1.21-4,2.68-4.83,4.85-.72,1.88-.42,4-.39,6,.27,17.22-18.93,30.25-18.33,47.47.24,6.82,3.67,13.18,4.3,20,1.05,11.36-5.67,21.81-12.11,31.23a26,26,0,0,0,18.25-6.05A138.34,138.34,0,0,1,437,419.35h9.21a7,7,0,0,1,2.69.34,6.58,6.58,0,0,1,2.13,1.58c8.61,8.58,14.38,21.24,11.09,32.94l19.6-7.35c4.69-1.76,9.45-3.55,13.53-6.45s7.5-7.11,8.36-12.05c.53-3,.36-6.58,2.83-8.32a15.4,15.4,0,0,1,3.86-1.43c5.38-1.9,7.76-8.12,8.86-13.72A79,79,0,0,0,520.44,384c-.87-11.7-4.33-23.58-1.48-35,1.61-6.41,5.19-12.38,5.48-19,.47-10.91-8.06-20.31-9.33-31.16-.89-7.56,1.84-15.2.95-22.77a24.48,24.48,0,0,0-12.87-18.57c-2.41-1.24-5-2.07-7.38-3.43-5.43-3.16-8.9-8.83-13.83-12.73s-13.14-5.37-16.85-.3Z" transform="translate(-386.5 -223.338)"/><g class="t" transform="translate(29.7 29.472)"><path d="M442.32,252.81a11.123,11.123,0,0,0-.06,1.16C442.29,253.59,442.31,253.2,442.32,252.81Z" transform="translate(-416.2 -252.81)"/><path d="M515,292.84c.36-5.3,1.54-10.62,1.1-15.9C515.77,282.24,514.59,287.56,515,292.84Z" transform="translate(-416.2 -252.81)"/><path d="M428.31,319.19c-.58-6.2-3.47-12-4.15-18.19a22.8,22.8,0,0,0-.15,3.42c.24,6.75,3.59,13.06,4.27,19.78A27,27,0,0,0,428.31,319.19Z" transform="translate(-416.2 -252.81)"/><path d="M519,343.82a42.881,42.881,0,0,0-1,12.42,37.657,37.657,0,0,1,1-7.21c1.61-6.41,5.19-12.38,5.48-19a20.608,20.608,0,0,0-.16-3.52C523.54,332.46,520.43,338,519,343.82Z" transform="translate(-416.2 -252.81)"/><path d="M434.45,344.36a26,26,0,0,1-14.76,6c-1.14,1.78-2.32,3.52-3.49,5.24a26,26,0,0,0,18.25-6.05A138,138,0,0,1,440.27,387,138.31,138.31,0,0,0,434.45,344.36Z" transform="translate(-416.2 -252.81)"/><path d="M519.19,399.65c-1.1,5.6-3.48,11.82-8.86,13.71a15,15,0,0,0-3.86,1.44c-2.47,1.74-2.3,5.34-2.83,8.32-.86,4.94-4.27,9.14-8.36,12s-8.84,4.7-13.53,6.46l-18.7,7a25.807,25.807,0,0,1-.9,5.55l19.6-7.35c4.69-1.76,9.45-3.55,13.53-6.45s7.5-7.11,8.36-12.05c.53-3,.36-6.58,2.83-8.32a15.4,15.4,0,0,1,3.86-1.43c5.38-1.9,7.76-8.12,8.86-13.72a78.42,78.42,0,0,0,1.41-17.7A78.3,78.3,0,0,1,519.19,399.65Z" transform="translate(-416.2 -252.81)"/><path d="M451.06,416a6.611,6.611,0,0,0-2.13-1.59,7.15,7.15,0,0,0-2.69-.34h-8.17c-.32,1.74-.66,3.48-1,5.21h9.21a7,7,0,0,1,2.69.34,6.58,6.58,0,0,1,2.13,1.58c6.3,6.28,11.07,14.74,11.89,23.42C464,434.24,458.62,423.56,451.06,416Z" transform="translate(-416.2 -252.81)"/></g><path class="f" d="M405.37,450.08s7.44-3.12,9.1,0S405.37,450.08,405.37,450.08Z" transform="translate(-386.5 -229.01)"/><path class="f" d="M408,455.43s7.44-3.12,9.11,0S408,455.43,408,455.43Z" transform="translate(-386.5 -229.145)"/></g><g transform="translate(564.648 8.6)"><path class="a" d="M869.11,51.68s-38.05-2.29-33.56,24.37c0,0-.89,4.71,3.38,6.85,0,0,.07-2,3.9-1.31a17.511,17.511,0,0,0,4.13.2A8.57,8.57,0,0,0,852,79.7h0s10.69-4.41,14.85-21.89c0,0,3.08-3.82,3-4.8l-6.42,2.75s2.19,4.63.46,8.48c0,0-.2-8.32-1.44-8.12-.25,0-3.33,1.6-3.33,1.6s3.77,8.07.92,13.94c0,0,1.08-9.94-2.1-13.35L853.4,61s4.41,8.33,1.42,15.13c0,0,.77-10.43-2.37-14.49l-4.1,3.19S852.5,73,850,78.64c0,0-.33-12.15-2.51-13.06,0,0-3.58,3.16-4.12,4.46,0,0,2.83,6,1.07,9.1,0,0-1.08-8.08-2-8.12,0,0-3.57,5.36-3.94,9a19.51,19.51,0,0,1,3.07-9.55,10.67,10.67,0,0,0-5.46,2.84s.55-3.79,6.34-4.13c0,0,2.95-4.06,3.74-4.31,0,0-5.76-.48-9.25,1.07,0,0,3.07-3.58,10.31-2l4-3.3s-7.58-1-10.8.11c0,0,3.7-3.16,11.89-.86l4.4-2.63s-6.46-1.4-10.31-.89c0,0,4.06-2.19,11.6.18l3.15-1.41s-4.74-.93-6.12-1.08-1.46-.53-1.46-.53a16.36,16.36,0,0,1,8.89,1S869.22,52.1,869.11,51.68Z" transform="translate(-759.362 -30.06)"/><path class="a" d="M814.88,30.06s-32,20.71-12.59,39.52c0,0,2.07,4.32,6.78,3.52,0,0-1.12-1.64,2.37-3.37a17.359,17.359,0,0,0,3.45-2.29,8.61,8.61,0,0,0,2.83-4.67h0s6-9.9-1-26.44c0,0,.22-4.9-.46-5.62l-3.54,6s4.51,2.43,5.4,6.55c0,0-5.09-6.57-6-5.68-.18.18-1.74,3.27-1.74,3.27s7.83,4.26,9,10.67c0,0-5-8.65-9.61-9.5l-2.08,4.8s8.5,4.1,10.12,11.35c0,0-5.57-8.86-10.5-10.27l-1.4,5s8.2,4.16,9.51,10.2c0,0-7.46-9.58-9.76-9,0,0-1,4.66-.68,6,0,0,5.82,3.12,6.26,6.7,0,0-5.66-5.87-6.39-5.38,0,0,.3,6.43,2.17,9.61a19.53,19.53,0,0,1-3.18-9.51,10.7,10.7,0,0,0-2.72,5.52s-1.8-3.38,2.67-7.08c0,0,0-5,.45-5.69,0,0-4.92,3-6.82,6.34,0,0,.36-4.7,7.15-7.68l1.3-5.05s-6.72,3.66-8.63,6.49c0,0,1.11-4.74,9.06-7.74l2-4.73s-6,2.71-8.84,5.4c0,0,2-4.18,9.46-6.73l1.7-3s-4.37,2.06-5.57,2.76-1.49.44-1.49.44a16.39,16.39,0,0,1,7.75-4.47S815.22,30.34,814.88,30.06Z" transform="translate(-759.362 -30.06)"/><path class="a" d="M766.18,54.19s-19.13,33,6.7,40.93c0,0,3.81,2.91,7.64,0,0,0-1.73-.94.59-4.07a17.51,17.51,0,0,0,2-3.6,8.64,8.64,0,0,0,.41-5.45h0s.85-11.54-12.9-23.11c0,0-2-4.46-3-4.79l-.43,7s5.12.12,7.79,3.39c0,0-7.52-3.55-7.9-2.36-.08.24-.07,3.7-.07,3.7S776,66.1,780,71.28c0,0-8.4-5.43-12.87-4.11l.32,5.22s9.43-.2,14.16,5.53c0,0-9-5.37-14-4.39l1,5.09s9.2,0,13.1,4.78c0,0-11-5.16-12.79-3.63,0,0,1.21,4.62,2.13,5.69,0,0,6.6.14,8.62,3.13,0,0-7.71-2.67-8.14-1.89,0,0,3.19,5.59,6.3,7.57a19.53,19.53,0,0,1-7.15-7,10.71,10.71,0,0,0,.08,6.15s-3.14-2.19-.84-7.52c0,0-2.3-4.46-2.17-5.27,0,0-3,4.93-3.2,8.74,0,0-1.82-4.35,2.88-10.08l-1.13-5.1s-4.33,6.31-4.75,9.7c0,0-1.16-4.73,4.57-11l-.38-5.11s-4.14,5.15-5.42,8.82c0,0-.14-4.62,5.37-10.29l.15-3.45s-3,3.81-3.71,5S761,68.88,761,68.88a16.46,16.46,0,0,1,4.88-7.51S766.6,54.28,766.18,54.19Z" transform="translate(-759.362 -30.06)"/></g><path class="c" d="M930.43,430.37a14.31,14.31,0,1,0,14.31,14.31,14.31,14.31,0,0,0-14.31-14.31ZM888.59,318.08v14.31H902.9l25.76,52.18L917.89,402.1a13.759,13.759,0,0,0-1.79,6.8c0,9.58,6.55,14.31,15.43,14.31h83.67V409.45H933.28a1.69,1.69,0,0,1-1.79-1.79,9,9,0,0,1,.76-1.78l7.15-11.29h53.31a14,14,0,0,0,12.52-7.51L1031,342.77a8.31,8.31,0,0,0,.72-3.58,6.88,6.88,0,0,0-7.16-6.8H918.65l-6.8-14.31Zm112.29,112.29a14.31,14.31,0,1,0,14.32,14.313,14.31,14.31,0,0,0-14.32-14.313Z" transform="translate(-267.749 -90.216)"/><path class="k" d="M940.67,336.21h-12v-12h-9v12h-12v9h12v12h9v-12h12Z" transform="translate(-205.792 -65.31)"/></g></svg>
